HIERARCHY
ROOT Hips
{
	OFFSET -0.001795 -0.223333 0.028219
	CHANNELS 6 Xposition Yposition Zposition Zrotation Yrotation Xrotation 
	JOINT LeftUpLeg
	{
		OFFSET 0.069520 -0.091406 -0.006815
		CHANNELS 3 Zrotation Yrotation Xrotation
		JOINT LeftLeg
		{
			OFFSET 0.034277 -0.375199 -0.004496
			CHANNELS 3 Zrotation Yrotation Xrotation
			JOINT LeftFoot
			{
				OFFSET -0.013596 -0.397961 -0.043693
				CHANNELS 3 Zrotation Yrotation Xrotation
				JOINT LeftToe
				{
					OFFSET 0.026358 -0.055791 0.119288
					CHANNELS 3 Zrotation Yrotation Xrotation
					End Site
					{
						OFFSET 0.000000 0.000000 0.000000
					}
				}
			}
		}
	}
	JOINT RightUpLeg
	{
		OFFSET -0.067670 -0.090522 -0.004320
		CHANNELS 3 Zrotation Yrotation Xrotation
		JOINT RightLeg
		{
			OFFSET -0.038290 -0.382569 -0.008850
			CHANNELS 3 Zrotation Yrotation Xrotation
			JOINT RightFoot
			{
				OFFSET 0.015774 -0.398415 -0.042312
				CHANNELS 3 Zrotation Yrotation Xrotation
				JOINT RightToe
				{
					OFFSET -0.025372 -0.048144 0.123348
					CHANNELS 3 Zrotation Yrotation Xrotation
					End Site
					{
						OFFSET 0.000000 0.000000 0.000000
					}
				}
			}
		}
	}
	JOINT Spine
	{
		OFFSET -0.002533 0.108963 -0.026696
		CHANNELS 3 Zrotation Yrotation Xrotation
		JOINT Spine1
		{
			OFFSET 0.005487 0.135180 0.001092
			CHANNELS 3 Zrotation Yrotation Xrotation
			JOINT Spine2
			{
				OFFSET 0.001457 0.052922 0.025425
				CHANNELS 3 Zrotation Yrotation Xrotation
				JOINT Neck
				{
					OFFSET -0.002778 0.213870 -0.042857
					CHANNELS 3 Zrotation Yrotation Xrotation
					JOINT Head
					{
						OFFSET 0.005152 0.064970 0.051349
						CHANNELS 3 Zrotation Yrotation Xrotation
						End Site
						{
							OFFSET 0.000000 0.000000 0.000000
						}
					}
				}
				JOINT LeftShoulder
				{
					OFFSET 0.078845 0.121749 -0.034090
					CHANNELS 3 Zrotation Yrotation Xrotation
					JOINT LeftArm
					{
						OFFSET 0.090977 0.030469 -0.008868
						CHANNELS 3 Zrotation Yrotation Xrotation
						JOINT LeftForeArm
						{
							OFFSET 0.259612 -0.012772 -0.027456
							CHANNELS 3 Zrotation Yrotation Xrotation
							JOINT LeftHand
							{
								OFFSET 0.249234 0.008986 -0.001171
								CHANNELS 3 Zrotation Yrotation Xrotation
								End Site
								{
									OFFSET 0.000000 0.000000 0.000000
								}
							}
						}
					}
				}
				JOINT RightShoulder
				{
					OFFSET -0.081759 0.118833 -0.038615
					CHANNELS 3 Zrotation Yrotation Xrotation
					JOINT RightArm
					{
						OFFSET -0.096012 0.032551 -0.009143
						CHANNELS 3 Zrotation Yrotation Xrotation
						JOINT RightForeArm
						{
							OFFSET -0.253742 -0.013329 -0.021401
							CHANNELS 3 Zrotation Yrotation Xrotation
							JOINT RightHand
							{
								OFFSET -0.255298 0.007772 -0.005559
								CHANNELS 3 Zrotation Yrotation Xrotation
								End Site
								{
									OFFSET 0.000000 0.000000 0.000000
								}
							}
						}
					}
				}
			}
		}
	}
}
MOTION
Frames: 8
Frame Time: 0.050000
0.000000 0.808687 0.000000 -2.608546 11.672961 26.197345 21.557583 1.448142 -62.178266 -25.972734 11.316841 44.841560 16.279350 37.015059 -4.999887 0.000000 0.000000 0.000000 -7.245237 -2.346636 -73.535284 13.382116 -9.468887 60.761025 -10.210735 -24.533414 2.666380 0.000000 0.000000 0.000000 -6.448981 -1.899018 52.033874 9.424845 -0.516343 -30.492184 4.567807 2.763615 33.232930 -3.398797 4.276811 -25.045401 0.000000 0.000000 0.000000 -25.111463 5.183291 -7.738126 -41.992443 6.563474 -8.428742 -67.664412 -58.791846 43.015932 0.000000 0.000000 0.000000 16.233103 -8.869790 -4.262373 48.140755 -5.204940 -8.968218 68.741412 63.569999 53.348258 0.000000 0.000000 0.000000 
-0.000223 0.800942 0.001733 -4.008611 10.670091 28.051200 25.384423 3.863874 -63.064107 -27.982784 12.867233 44.479743 17.380514 39.485896 -5.006434 0.000000 0.000000 0.000000 -5.124797 -0.435799 -76.692268 12.656887 -8.616467 61.889979 -10.764195 -25.736372 3.650570 0.000000 0.000000 0.000000 -7.293320 -1.110059 51.691246 10.289758 -0.522758 -31.739466 4.869928 2.725899 35.719334 -4.740260 4.970911 -29.479088 0.000000 0.000000 0.000000 -25.293612 8.233702 -9.906482 -40.899973 9.021953 -8.931582 -82.928505 -56.176306 51.874315 0.000000 0.000000 0.000000 16.083783 -9.081724 -4.340028 47.454087 -5.064316 -9.006635 73.994205 67.175692 61.382895 0.000000 0.000000 0.000000 
-0.000240 0.795123 0.003476 -2.894189 10.363289 27.553573 24.933880 3.570346 -61.776805 -29.610961 13.510072 43.757473 16.184930 39.346633 -10.585654 0.000000 0.000000 0.000000 -6.561946 -1.359539 -75.794940 14.245066 -9.889656 62.019037 -10.945185 -26.760025 -0.306568 0.000000 0.000000 0.000000 -7.206943 -1.154557 53.380897 10.450976 -0.683610 -30.235924 3.674180 3.273429 35.167578 -1.889329 3.464803 -24.922117 0.000000 0.000000 0.000000 -25.562131 9.213549 -10.700500 -41.192653 11.174392 -9.603745 -81.540872 -57.431641 51.805395 0.000000 0.000000 0.000000 19.357490 -9.604293 -4.861546 43.707967 -4.250803 -8.255440 83.922610 67.545064 70.216544 0.000000 0.000000 0.000000 
-0.000112 0.793533 0.005111 -3.291181 10.665375 28.181315 26.185314 4.251693 -63.163615 -31.063204 14.531054 44.082213 16.500159 40.021855 -10.112432 0.000000 0.000000 0.000000 -5.899975 -1.078088 -77.655267 14.065683 -9.870581 63.152493 -10.397812 -25.063397 2.866843 0.000000 0.000000 0.000000 -7.251688 -1.346117 54.879618 10.606865 -0.596064 -31.120769 3.664770 2.184697 35.674052 -4.675320 4.812492 -27.042881 0.000000 0.000000 0.000000 -27.764887 10.029572 -11.488602 -38.822046 13.514764 -9.601664 -87.074405 -57.631719 56.504996 0.000000 0.000000 0.000000 18.627323 -9.216682 -4.918116 41.969646 -5.262700 -8.191453 87.213945 68.072966 72.816265 0.000000 0.000000 0.000000 
0.000068 0.791337 0.006361 -3.177838 10.544924 29.313766 26.199150 4.427998 -64.388733 -32.015603 15.003058 43.548497 17.421916 42.056545 -9.509110 0.000000 0.000000 0.000000 -5.706396 -0.906201 -78.428722 13.755322 -9.551090 63.169129 -10.317334 -25.038733 2.283678 0.000000 0.000000 0.000000 -7.351876 -1.290391 55.476435 10.519011 -0.580768 -30.999191 3.495682 2.621110 35.845066 -4.758581 4.883731 -26.850868 0.000000 0.000000 0.000000 -28.069187 11.233261 -12.719962 -38.422214 13.793564 -9.460280 -86.087104 -57.271195 55.091733 0.000000 0.000000 0.000000 19.616481 -10.875550 -6.005519 41.079789 -3.966762 -7.728025 86.542485 66.111177 70.424717 0.000000 0.000000 0.000000 
0.000239 0.788773 0.006868 -3.106333 10.868205 29.921213 27.187314 4.930392 -65.401142 -33.808447 16.004725 43.249112 17.307632 41.661177 -9.119142 0.000000 0.000000 0.000000 -5.472880 -0.959957 -79.670847 13.415752 -9.454279 64.454719 -10.115873 -24.620129 2.041951 0.000000 0.000000 0.000000 -7.258823 -1.596766 57.280049 10.355855 -0.383388 -32.511398 3.883225 2.454570 36.596966 -5.749910 5.410639 -25.390097 0.000000 0.000000 0.000000 -29.748474 11.616718 -13.522422 -36.578023 14.574278 -9.090288 -85.768582 -57.362195 54.789016 0.000000 0.000000 0.000000 19.597226 -11.582105 -6.546358 40.735431 -4.558222 -7.853430 86.756515 64.666040 68.895791 0.000000 0.000000 0.000000 
0.000694 0.785782 0.006630 -2.731851 10.800067 30.620704 26.926559 4.938758 -66.651847 -34.061549 16.340953 43.609882 17.854782 42.597926 -8.458060 0.000000 0.000000 0.000000 -5.339853 -0.921662 -80.932790 12.739014 -9.008524 65.793987 -9.953880 -24.282273 2.050595 0.000000 0.000000 0.000000 -7.333056 -1.616709 58.303038 10.376388 -0.400346 -32.216341 3.683200 2.374736 36.208997 -5.871827 5.422231 -24.693805 0.000000 0.000000 0.000000 -29.871182 12.585135 -14.272657 -36.628528 15.317332 -9.215317 -84.362040 -56.719323 52.967854 0.000000 0.000000 0.000000 19.724997 -12.321365 -7.164014 41.276275 -5.559189 -8.109621 82.496222 62.802782 62.836471 0.000000 0.000000 0.000000 
0.001438 0.781390 0.006018 -2.350821 10.945075 31.279498 26.727410 4.908914 -68.105221 -34.226780 16.792718 44.479704 17.930833 42.771721 -8.442785 0.000000 0.000000 0.000000 -5.372248 -1.143376 -82.287916 12.673545 -9.122877 67.345771 -10.184498 -24.750867 2.266870 0.000000 0.000000 0.000000 -7.363784 -1.743376 59.393507 10.227071 -0.319517 -32.617725 3.959760 2.383974 36.386634 -6.344400 5.652796 -25.126190 0.000000 0.000000 0.000000 -30.156301 12.528636 -14.383456 -36.547609 15.988252 -9.314967 -82.719593 -56.709908 51.538747 0.000000 0.000000 0.000000 19.613781 -13.102372 -7.697020 42.121529 -7.076647 -8.638450 81.620994 61.282880 60.448165 0.000000 0.000000 0.000000 
